<mxfile host="app.diagrams.net" agent="Mozilla/5.0 (Windows NT 10.0; Win64; x64) AppleWebKit/537.36 (KHTML, like Gecko) Chrome/134.0.0.0 YaBrowser/25.4.0.0 Safari/537.36" version="27.0.2">
  <diagram name="Страница — 1" id="UdZ6xZ7ucw1kQUrBbt0B">
    <mxGraphModel dx="2665" dy="1098" grid="1" gridSize="10" guides="1" tooltips="1" connect="1" arrows="1" fold="1" page="1" pageScale="1" pageWidth="827" pageHeight="1169" math="0" shadow="0">
      <root>
        <mxCell id="0" />
        <mxCell id="1" parent="0" />
        <mxCell id="vGmuodugA4ZgQ4iNsHjh-1" value="Заказ еды" style="swimlane;html=1;childLayout=stackLayout;resizeParent=1;resizeParentMax=0;horizontal=0;startSize=20;horizontalStack=0;whiteSpace=wrap;" vertex="1" parent="1">
          <mxGeometry x="-10" y="10" width="1660" height="500" as="geometry">
            <mxRectangle x="110" y="10" width="40" height="90" as="alternateBounds" />
          </mxGeometry>
        </mxCell>
        <mxCell id="vGmuodugA4ZgQ4iNsHjh-2" value="Клиент" style="swimlane;html=1;startSize=20;horizontal=0;" vertex="1" parent="vGmuodugA4ZgQ4iNsHjh-1">
          <mxGeometry x="20" width="1640" height="190" as="geometry" />
        </mxCell>
        <mxCell id="vGmuodugA4ZgQ4iNsHjh-6" value="Возникла потребность в готовой еде" style="points=[[0.25,0,0],[0.5,0,0],[0.75,0,0],[1,0.25,0],[1,0.5,0],[1,0.75,0],[0.75,1,0],[0.5,1,0],[0.25,1,0],[0,0.75,0],[0,0.5,0],[0,0.25,0]];shape=mxgraph.bpmn.task2;whiteSpace=wrap;rectStyle=rounded;size=10;html=1;container=1;expand=0;collapsible=0;taskMarker=abstract;" vertex="1" parent="vGmuodugA4ZgQ4iNsHjh-2">
          <mxGeometry x="60" y="20" width="120" height="80" as="geometry" />
        </mxCell>
        <mxCell id="vGmuodugA4ZgQ4iNsHjh-7" value="Выбрать адрес доставки" style="points=[[0.25,0,0],[0.5,0,0],[0.75,0,0],[1,0.25,0],[1,0.5,0],[1,0.75,0],[0.75,1,0],[0.5,1,0],[0.25,1,0],[0,0.75,0],[0,0.5,0],[0,0.25,0]];shape=mxgraph.bpmn.task2;whiteSpace=wrap;rectStyle=rounded;size=10;html=1;container=1;expand=0;collapsible=0;taskMarker=abstract;" vertex="1" parent="vGmuodugA4ZgQ4iNsHjh-2">
          <mxGeometry x="224" y="20" width="120" height="80" as="geometry" />
        </mxCell>
        <mxCell id="vGmuodugA4ZgQ4iNsHjh-8" style="edgeStyle=orthogonalEdgeStyle;rounded=0;orthogonalLoop=1;jettySize=auto;html=1;exitX=1;exitY=0.5;exitDx=0;exitDy=0;exitPerimeter=0;entryX=0;entryY=0.5;entryDx=0;entryDy=0;entryPerimeter=0;" edge="1" parent="vGmuodugA4ZgQ4iNsHjh-2" source="vGmuodugA4ZgQ4iNsHjh-6" target="vGmuodugA4ZgQ4iNsHjh-7">
          <mxGeometry relative="1" as="geometry" />
        </mxCell>
        <mxCell id="vGmuodugA4ZgQ4iNsHjh-13" value="Оплатить" style="points=[[0.25,0,0],[0.5,0,0],[0.75,0,0],[1,0.25,0],[1,0.5,0],[1,0.75,0],[0.75,1,0],[0.5,1,0],[0.25,1,0],[0,0.75,0],[0,0.5,0],[0,0.25,0]];shape=mxgraph.bpmn.task2;whiteSpace=wrap;rectStyle=rounded;size=10;html=1;container=1;expand=0;collapsible=0;taskMarker=abstract;" vertex="1" parent="vGmuodugA4ZgQ4iNsHjh-2">
          <mxGeometry x="830" y="20" width="120" height="80" as="geometry" />
        </mxCell>
        <mxCell id="vGmuodugA4ZgQ4iNsHjh-66" value="" style="points=[[0.25,0.25,0],[0.5,0,0],[0.75,0.25,0],[1,0.5,0],[0.75,0.75,0],[0.5,1,0],[0.25,0.75,0],[0,0.5,0]];shape=mxgraph.bpmn.gateway2;html=1;verticalLabelPosition=bottom;labelBackgroundColor=#ffffff;verticalAlign=top;align=center;perimeter=rhombusPerimeter;outlineConnect=0;outline=none;symbol=none;gwType=exclusive;" vertex="1" parent="vGmuodugA4ZgQ4iNsHjh-2">
          <mxGeometry x="1065" y="35" width="50" height="50" as="geometry" />
        </mxCell>
        <mxCell id="vGmuodugA4ZgQ4iNsHjh-68" style="edgeStyle=orthogonalEdgeStyle;rounded=0;orthogonalLoop=1;jettySize=auto;html=1;entryX=1;entryY=0.5;entryDx=0;entryDy=0;entryPerimeter=0;" edge="1" parent="vGmuodugA4ZgQ4iNsHjh-2" source="vGmuodugA4ZgQ4iNsHjh-66" target="vGmuodugA4ZgQ4iNsHjh-13">
          <mxGeometry relative="1" as="geometry" />
        </mxCell>
        <mxCell id="vGmuodugA4ZgQ4iNsHjh-69" value="" style="points=[[0.145,0.145,0],[0.5,0,0],[0.855,0.145,0],[1,0.5,0],[0.855,0.855,0],[0.5,1,0],[0.145,0.855,0],[0,0.5,0]];shape=mxgraph.bpmn.event;html=1;verticalLabelPosition=bottom;labelBackgroundColor=#ffffff;verticalAlign=top;align=center;perimeter=ellipsePerimeter;outlineConnect=0;aspect=fixed;outline=end;symbol=terminate;" vertex="1" parent="vGmuodugA4ZgQ4iNsHjh-2">
          <mxGeometry x="1150" y="35" width="50" height="50" as="geometry" />
        </mxCell>
        <mxCell id="vGmuodugA4ZgQ4iNsHjh-71" value="нет" style="text;html=1;align=center;verticalAlign=middle;resizable=0;points=[];autosize=1;strokeColor=none;fillColor=none;" vertex="1" parent="vGmuodugA4ZgQ4iNsHjh-2">
          <mxGeometry x="1115" y="20" width="40" height="30" as="geometry" />
        </mxCell>
        <mxCell id="vGmuodugA4ZgQ4iNsHjh-70" style="edgeStyle=orthogonalEdgeStyle;rounded=0;orthogonalLoop=1;jettySize=auto;html=1;" edge="1" parent="vGmuodugA4ZgQ4iNsHjh-2" source="vGmuodugA4ZgQ4iNsHjh-66">
          <mxGeometry relative="1" as="geometry">
            <mxPoint x="1125" y="60.00000000000006" as="sourcePoint" />
            <mxPoint x="1160" y="60.00000000000006" as="targetPoint" />
          </mxGeometry>
        </mxCell>
        <mxCell id="vGmuodugA4ZgQ4iNsHjh-74" value="Оплатить еще раз?" style="text;html=1;align=center;verticalAlign=middle;resizable=0;points=[];autosize=1;strokeColor=none;fillColor=none;" vertex="1" parent="vGmuodugA4ZgQ4iNsHjh-2">
          <mxGeometry x="1025" y="5" width="130" height="30" as="geometry" />
        </mxCell>
        <mxCell id="vGmuodugA4ZgQ4iNsHjh-80" style="edgeStyle=orthogonalEdgeStyle;rounded=0;orthogonalLoop=1;jettySize=auto;html=1;" edge="1" parent="vGmuodugA4ZgQ4iNsHjh-2" source="vGmuodugA4ZgQ4iNsHjh-77" target="vGmuodugA4ZgQ4iNsHjh-79">
          <mxGeometry relative="1" as="geometry" />
        </mxCell>
        <mxCell id="vGmuodugA4ZgQ4iNsHjh-77" value="Дождаться заказа" style="points=[[0.25,0,0],[0.5,0,0],[0.75,0,0],[1,0.25,0],[1,0.5,0],[1,0.75,0],[0.75,1,0],[0.5,1,0],[0.25,1,0],[0,0.75,0],[0,0.5,0],[0,0.25,0]];shape=mxgraph.bpmn.task2;whiteSpace=wrap;rectStyle=rounded;size=10;html=1;container=1;expand=0;collapsible=0;taskMarker=abstract;" vertex="1" parent="vGmuodugA4ZgQ4iNsHjh-2">
          <mxGeometry x="1320" y="28" width="120" height="80" as="geometry" />
        </mxCell>
        <mxCell id="vGmuodugA4ZgQ4iNsHjh-79" value="" style="points=[[0.145,0.145,0],[0.5,0,0],[0.855,0.145,0],[1,0.5,0],[0.855,0.855,0],[0.5,1,0],[0.145,0.855,0],[0,0.5,0]];shape=mxgraph.bpmn.event;html=1;verticalLabelPosition=bottom;labelBackgroundColor=#ffffff;verticalAlign=top;align=center;perimeter=ellipsePerimeter;outlineConnect=0;aspect=fixed;outline=end;symbol=terminate;" vertex="1" parent="vGmuodugA4ZgQ4iNsHjh-2">
          <mxGeometry x="1490" y="43" width="50" height="50" as="geometry" />
        </mxCell>
        <mxCell id="vGmuodugA4ZgQ4iNsHjh-3" value="Приложение" style="swimlane;html=1;startSize=20;horizontal=0;" vertex="1" parent="vGmuodugA4ZgQ4iNsHjh-1">
          <mxGeometry x="20" y="190" width="1640" height="120" as="geometry" />
        </mxCell>
        <mxCell id="vGmuodugA4ZgQ4iNsHjh-15" value="Попытка оплаты заказа" style="points=[[0.25,0,0],[0.5,0,0],[0.75,0,0],[1,0.25,0],[1,0.5,0],[1,0.75,0],[0.75,1,0],[0.5,1,0],[0.25,1,0],[0,0.75,0],[0,0.5,0],[0,0.25,0]];shape=mxgraph.bpmn.task2;whiteSpace=wrap;rectStyle=rounded;size=10;html=1;container=1;expand=0;collapsible=0;taskMarker=abstract;" vertex="1" parent="vGmuodugA4ZgQ4iNsHjh-3">
          <mxGeometry x="830" y="20" width="120" height="80" as="geometry" />
        </mxCell>
        <mxCell id="vGmuodugA4ZgQ4iNsHjh-28" value="&quot;На счете недостаточно средств&quot;" style="points=[[0.25,0,0],[0.5,0,0],[0.75,0,0],[1,0.25,0],[1,0.5,0],[1,0.75,0],[0.75,1,0],[0.5,1,0],[0.25,1,0],[0,0.75,0],[0,0.5,0],[0,0.25,0]];shape=mxgraph.bpmn.task2;whiteSpace=wrap;rectStyle=rounded;size=10;html=1;container=1;expand=0;collapsible=0;taskMarker=abstract;" vertex="1" parent="vGmuodugA4ZgQ4iNsHjh-3">
          <mxGeometry x="1030" y="10" width="120" height="80" as="geometry" />
        </mxCell>
        <mxCell id="vGmuodugA4ZgQ4iNsHjh-35" value="Отправить запрос на проверку" style="points=[[0.25,0,0],[0.5,0,0],[0.75,0,0],[1,0.25,0],[1,0.5,0],[1,0.75,0],[0.75,1,0],[0.5,1,0],[0.25,1,0],[0,0.75,0],[0,0.5,0],[0,0.25,0]];shape=mxgraph.bpmn.task2;whiteSpace=wrap;rectStyle=rounded;size=10;html=1;container=1;expand=0;collapsible=0;taskMarker=abstract;" vertex="1" parent="vGmuodugA4ZgQ4iNsHjh-3">
          <mxGeometry x="224" y="10" width="120" height="80" as="geometry" />
        </mxCell>
        <mxCell id="vGmuodugA4ZgQ4iNsHjh-50" value="&quot;Извините, но мы сюда не сможем доставить&quot;" style="points=[[0.25,0,0],[0.5,0,0],[0.75,0,0],[1,0.25,0],[1,0.5,0],[1,0.75,0],[0.75,1,0],[0.5,1,0],[0.25,1,0],[0,0.75,0],[0,0.5,0],[0,0.25,0]];shape=mxgraph.bpmn.task2;whiteSpace=wrap;rectStyle=rounded;size=10;html=1;container=1;expand=0;collapsible=0;taskMarker=abstract;" vertex="1" parent="vGmuodugA4ZgQ4iNsHjh-3">
          <mxGeometry x="470" y="20" width="120" height="80" as="geometry" />
        </mxCell>
        <mxCell id="vGmuodugA4ZgQ4iNsHjh-75" value="Спасибо за то, что выбрали наш сервис" style="points=[[0.25,0,0],[0.5,0,0],[0.75,0,0],[1,0.25,0],[1,0.5,0],[1,0.75,0],[0.75,1,0],[0.5,1,0],[0.25,1,0],[0,0.75,0],[0,0.5,0],[0,0.25,0]];shape=mxgraph.bpmn.task2;whiteSpace=wrap;rectStyle=rounded;size=10;html=1;container=1;expand=0;collapsible=0;taskMarker=abstract;" vertex="1" parent="vGmuodugA4ZgQ4iNsHjh-3">
          <mxGeometry x="1210" y="10" width="120" height="80" as="geometry" />
        </mxCell>
        <mxCell id="vGmuodugA4ZgQ4iNsHjh-16" style="edgeStyle=orthogonalEdgeStyle;rounded=0;orthogonalLoop=1;jettySize=auto;html=1;exitX=0.5;exitY=1;exitDx=0;exitDy=0;exitPerimeter=0;entryX=0.5;entryY=0;entryDx=0;entryDy=0;entryPerimeter=0;" edge="1" parent="vGmuodugA4ZgQ4iNsHjh-1" source="vGmuodugA4ZgQ4iNsHjh-13" target="vGmuodugA4ZgQ4iNsHjh-15">
          <mxGeometry relative="1" as="geometry" />
        </mxCell>
        <mxCell id="vGmuodugA4ZgQ4iNsHjh-18" style="edgeStyle=orthogonalEdgeStyle;rounded=0;orthogonalLoop=1;jettySize=auto;html=1;entryX=0.5;entryY=0;entryDx=0;entryDy=0;entryPerimeter=0;" edge="1" parent="vGmuodugA4ZgQ4iNsHjh-1" source="vGmuodugA4ZgQ4iNsHjh-15" target="vGmuodugA4ZgQ4iNsHjh-17">
          <mxGeometry relative="1" as="geometry" />
        </mxCell>
        <mxCell id="vGmuodugA4ZgQ4iNsHjh-4" value="Сервер" style="swimlane;html=1;startSize=20;horizontal=0;" vertex="1" parent="vGmuodugA4ZgQ4iNsHjh-1">
          <mxGeometry x="20" y="310" width="1640" height="190" as="geometry" />
        </mxCell>
        <mxCell id="vGmuodugA4ZgQ4iNsHjh-24" style="edgeStyle=orthogonalEdgeStyle;rounded=0;orthogonalLoop=1;jettySize=auto;html=1;" edge="1" parent="vGmuodugA4ZgQ4iNsHjh-4" source="vGmuodugA4ZgQ4iNsHjh-17" target="vGmuodugA4ZgQ4iNsHjh-23">
          <mxGeometry relative="1" as="geometry" />
        </mxCell>
        <mxCell id="vGmuodugA4ZgQ4iNsHjh-19" value="Ошибка оплаты" style="points=[[0.25,0,0],[0.5,0,0],[0.75,0,0],[1,0.25,0],[1,0.5,0],[1,0.75,0],[0.75,1,0],[0.5,1,0],[0.25,1,0],[0,0.75,0],[0,0.5,0],[0,0.25,0]];shape=mxgraph.bpmn.task2;whiteSpace=wrap;rectStyle=rounded;size=10;html=1;container=1;expand=0;collapsible=0;taskMarker=abstract;" vertex="1" parent="vGmuodugA4ZgQ4iNsHjh-4">
          <mxGeometry x="1030" y="10" width="120" height="80" as="geometry" />
        </mxCell>
        <mxCell id="vGmuodugA4ZgQ4iNsHjh-20" value="Оплата прошла успешно" style="points=[[0.25,0,0],[0.5,0,0],[0.75,0,0],[1,0.25,0],[1,0.5,0],[1,0.75,0],[0.75,1,0],[0.5,1,0],[0.25,1,0],[0,0.75,0],[0,0.5,0],[0,0.25,0]];shape=mxgraph.bpmn.task2;whiteSpace=wrap;rectStyle=rounded;size=10;html=1;container=1;expand=0;collapsible=0;taskMarker=abstract;" vertex="1" parent="vGmuodugA4ZgQ4iNsHjh-4">
          <mxGeometry x="1030" y="100" width="120" height="80" as="geometry" />
        </mxCell>
        <mxCell id="vGmuodugA4ZgQ4iNsHjh-23" value="" style="points=[[0.25,0.25,0],[0.5,0,0],[0.75,0.25,0],[1,0.5,0],[0.75,0.75,0],[0.5,1,0],[0.25,0.75,0],[0,0.5,0]];shape=mxgraph.bpmn.gateway2;html=1;verticalLabelPosition=bottom;labelBackgroundColor=#ffffff;verticalAlign=top;align=center;perimeter=rhombusPerimeter;outlineConnect=0;outline=none;symbol=none;gwType=exclusive;" vertex="1" parent="vGmuodugA4ZgQ4iNsHjh-4">
          <mxGeometry x="970" y="58" width="50" height="50" as="geometry" />
        </mxCell>
        <mxCell id="vGmuodugA4ZgQ4iNsHjh-37" value="Действует ли в этом регионе доставка?" style="points=[[0.25,0,0],[0.5,0,0],[0.75,0,0],[1,0.25,0],[1,0.5,0],[1,0.75,0],[0.75,1,0],[0.5,1,0],[0.25,1,0],[0,0.75,0],[0,0.5,0],[0,0.25,0]];shape=mxgraph.bpmn.task2;whiteSpace=wrap;rectStyle=rounded;size=10;html=1;container=1;expand=0;collapsible=0;taskMarker=abstract;" vertex="1" parent="vGmuodugA4ZgQ4iNsHjh-4">
          <mxGeometry x="224" y="55" width="120" height="80" as="geometry" />
        </mxCell>
        <mxCell id="vGmuodugA4ZgQ4iNsHjh-17" value="Проведение оплаты" style="points=[[0.25,0,0],[0.5,0,0],[0.75,0,0],[1,0.25,0],[1,0.5,0],[1,0.75,0],[0.75,1,0],[0.5,1,0],[0.25,1,0],[0,0.75,0],[0,0.5,0],[0,0.25,0]];shape=mxgraph.bpmn.task2;whiteSpace=wrap;rectStyle=rounded;size=10;html=1;container=1;expand=0;collapsible=0;taskMarker=abstract;" vertex="1" parent="vGmuodugA4ZgQ4iNsHjh-4">
          <mxGeometry x="830" y="43" width="120" height="80" as="geometry" />
        </mxCell>
        <mxCell id="vGmuodugA4ZgQ4iNsHjh-45" style="edgeStyle=orthogonalEdgeStyle;rounded=0;orthogonalLoop=1;jettySize=auto;html=1;" edge="1" parent="vGmuodugA4ZgQ4iNsHjh-4" source="vGmuodugA4ZgQ4iNsHjh-41" target="vGmuodugA4ZgQ4iNsHjh-43">
          <mxGeometry relative="1" as="geometry" />
        </mxCell>
        <mxCell id="vGmuodugA4ZgQ4iNsHjh-41" value="" style="points=[[0.25,0.25,0],[0.5,0,0],[0.75,0.25,0],[1,0.5,0],[0.75,0.75,0],[0.5,1,0],[0.25,0.75,0],[0,0.5,0]];shape=mxgraph.bpmn.gateway2;html=1;verticalLabelPosition=bottom;labelBackgroundColor=#ffffff;verticalAlign=top;align=center;perimeter=rhombusPerimeter;outlineConnect=0;outline=none;symbol=none;gwType=exclusive;" vertex="1" parent="vGmuodugA4ZgQ4iNsHjh-4">
          <mxGeometry x="379" y="70" width="50" height="50" as="geometry" />
        </mxCell>
        <mxCell id="vGmuodugA4ZgQ4iNsHjh-42" style="edgeStyle=orthogonalEdgeStyle;rounded=0;orthogonalLoop=1;jettySize=auto;html=1;exitX=1;exitY=0.5;exitDx=0;exitDy=0;exitPerimeter=0;entryX=0;entryY=0.5;entryDx=0;entryDy=0;entryPerimeter=0;" edge="1" parent="vGmuodugA4ZgQ4iNsHjh-4" source="vGmuodugA4ZgQ4iNsHjh-37" target="vGmuodugA4ZgQ4iNsHjh-41">
          <mxGeometry relative="1" as="geometry" />
        </mxCell>
        <mxCell id="vGmuodugA4ZgQ4iNsHjh-43" value="Отмена дальнейшего оформления" style="points=[[0.25,0,0],[0.5,0,0],[0.75,0,0],[1,0.25,0],[1,0.5,0],[1,0.75,0],[0.75,1,0],[0.5,1,0],[0.25,1,0],[0,0.75,0],[0,0.5,0],[0,0.25,0]];shape=mxgraph.bpmn.task2;whiteSpace=wrap;rectStyle=rounded;size=10;html=1;container=1;expand=0;collapsible=0;taskMarker=abstract;" vertex="1" parent="vGmuodugA4ZgQ4iNsHjh-4">
          <mxGeometry x="470" y="10" width="120" height="80" as="geometry" />
        </mxCell>
        <mxCell id="vGmuodugA4ZgQ4iNsHjh-44" value="Продолжение оформления" style="points=[[0.25,0,0],[0.5,0,0],[0.75,0,0],[1,0.25,0],[1,0.5,0],[1,0.75,0],[0.75,1,0],[0.5,1,0],[0.25,1,0],[0,0.75,0],[0,0.5,0],[0,0.25,0]];shape=mxgraph.bpmn.task2;whiteSpace=wrap;rectStyle=rounded;size=10;html=1;container=1;expand=0;collapsible=0;taskMarker=abstract;" vertex="1" parent="vGmuodugA4ZgQ4iNsHjh-4">
          <mxGeometry x="470" y="100" width="120" height="80" as="geometry" />
        </mxCell>
        <mxCell id="vGmuodugA4ZgQ4iNsHjh-47" style="edgeStyle=orthogonalEdgeStyle;rounded=0;orthogonalLoop=1;jettySize=auto;html=1;exitX=1;exitY=0.5;exitDx=0;exitDy=0;exitPerimeter=0;entryX=0;entryY=0.5;entryDx=0;entryDy=0;entryPerimeter=0;" edge="1" parent="vGmuodugA4ZgQ4iNsHjh-4" source="vGmuodugA4ZgQ4iNsHjh-41" target="vGmuodugA4ZgQ4iNsHjh-44">
          <mxGeometry relative="1" as="geometry" />
        </mxCell>
        <mxCell id="vGmuodugA4ZgQ4iNsHjh-49" value="нет" style="text;html=1;align=center;verticalAlign=middle;resizable=0;points=[];autosize=1;strokeColor=none;fillColor=none;" vertex="1" parent="vGmuodugA4ZgQ4iNsHjh-4">
          <mxGeometry x="410" y="135" width="40" height="30" as="geometry" />
        </mxCell>
        <mxCell id="vGmuodugA4ZgQ4iNsHjh-57" style="edgeStyle=orthogonalEdgeStyle;rounded=0;orthogonalLoop=1;jettySize=auto;html=1;entryX=0;entryY=0.5;entryDx=0;entryDy=0;entryPerimeter=0;" edge="1" parent="vGmuodugA4ZgQ4iNsHjh-4" source="vGmuodugA4ZgQ4iNsHjh-23" target="vGmuodugA4ZgQ4iNsHjh-19">
          <mxGeometry relative="1" as="geometry">
            <Array as="points">
              <mxPoint x="995" y="50" />
            </Array>
          </mxGeometry>
        </mxCell>
        <mxCell id="vGmuodugA4ZgQ4iNsHjh-58" style="edgeStyle=orthogonalEdgeStyle;rounded=0;orthogonalLoop=1;jettySize=auto;html=1;entryX=0;entryY=0.5;entryDx=0;entryDy=0;entryPerimeter=0;" edge="1" parent="vGmuodugA4ZgQ4iNsHjh-4" source="vGmuodugA4ZgQ4iNsHjh-23" target="vGmuodugA4ZgQ4iNsHjh-20">
          <mxGeometry relative="1" as="geometry">
            <Array as="points">
              <mxPoint x="995" y="140" />
            </Array>
          </mxGeometry>
        </mxCell>
        <mxCell id="vGmuodugA4ZgQ4iNsHjh-63" value="Нет" style="text;html=1;align=center;verticalAlign=middle;whiteSpace=wrap;rounded=0;" vertex="1" parent="vGmuodugA4ZgQ4iNsHjh-4">
          <mxGeometry x="970" y="25" width="60" height="30" as="geometry" />
        </mxCell>
        <mxCell id="vGmuodugA4ZgQ4iNsHjh-64" value="Да" style="text;html=1;align=center;verticalAlign=middle;whiteSpace=wrap;rounded=0;" vertex="1" parent="vGmuodugA4ZgQ4iNsHjh-4">
          <mxGeometry x="980" y="135" width="60" height="30" as="geometry" />
        </mxCell>
        <mxCell id="vGmuodugA4ZgQ4iNsHjh-29" style="edgeStyle=orthogonalEdgeStyle;rounded=0;orthogonalLoop=1;jettySize=auto;html=1;entryX=0.5;entryY=1;entryDx=0;entryDy=0;entryPerimeter=0;" edge="1" parent="vGmuodugA4ZgQ4iNsHjh-1" source="vGmuodugA4ZgQ4iNsHjh-19" target="vGmuodugA4ZgQ4iNsHjh-28">
          <mxGeometry relative="1" as="geometry" />
        </mxCell>
        <mxCell id="vGmuodugA4ZgQ4iNsHjh-36" style="edgeStyle=orthogonalEdgeStyle;rounded=0;orthogonalLoop=1;jettySize=auto;html=1;exitX=0.5;exitY=1;exitDx=0;exitDy=0;exitPerimeter=0;entryX=0.5;entryY=0;entryDx=0;entryDy=0;entryPerimeter=0;" edge="1" parent="vGmuodugA4ZgQ4iNsHjh-1" source="vGmuodugA4ZgQ4iNsHjh-7" target="vGmuodugA4ZgQ4iNsHjh-35">
          <mxGeometry relative="1" as="geometry" />
        </mxCell>
        <mxCell id="vGmuodugA4ZgQ4iNsHjh-38" style="edgeStyle=orthogonalEdgeStyle;rounded=0;orthogonalLoop=1;jettySize=auto;html=1;entryX=0.5;entryY=0;entryDx=0;entryDy=0;entryPerimeter=0;" edge="1" parent="vGmuodugA4ZgQ4iNsHjh-1" source="vGmuodugA4ZgQ4iNsHjh-35" target="vGmuodugA4ZgQ4iNsHjh-37">
          <mxGeometry relative="1" as="geometry" />
        </mxCell>
        <mxCell id="vGmuodugA4ZgQ4iNsHjh-53" style="edgeStyle=orthogonalEdgeStyle;rounded=0;orthogonalLoop=1;jettySize=auto;html=1;" edge="1" parent="vGmuodugA4ZgQ4iNsHjh-1" source="vGmuodugA4ZgQ4iNsHjh-43" target="vGmuodugA4ZgQ4iNsHjh-50">
          <mxGeometry relative="1" as="geometry" />
        </mxCell>
        <mxCell id="vGmuodugA4ZgQ4iNsHjh-55" style="edgeStyle=orthogonalEdgeStyle;rounded=0;orthogonalLoop=1;jettySize=auto;html=1;entryX=1;entryY=0.5;entryDx=0;entryDy=0;entryPerimeter=0;" edge="1" parent="vGmuodugA4ZgQ4iNsHjh-1" source="vGmuodugA4ZgQ4iNsHjh-50" target="vGmuodugA4ZgQ4iNsHjh-7">
          <mxGeometry relative="1" as="geometry">
            <Array as="points">
              <mxPoint x="550" y="60" />
            </Array>
          </mxGeometry>
        </mxCell>
        <mxCell id="vGmuodugA4ZgQ4iNsHjh-56" style="edgeStyle=orthogonalEdgeStyle;rounded=0;orthogonalLoop=1;jettySize=auto;html=1;entryX=0;entryY=0.5;entryDx=0;entryDy=0;entryPerimeter=0;" edge="1" parent="vGmuodugA4ZgQ4iNsHjh-1" source="vGmuodugA4ZgQ4iNsHjh-44" target="vGmuodugA4ZgQ4iNsHjh-13">
          <mxGeometry relative="1" as="geometry" />
        </mxCell>
        <mxCell id="vGmuodugA4ZgQ4iNsHjh-67" style="edgeStyle=orthogonalEdgeStyle;rounded=0;orthogonalLoop=1;jettySize=auto;html=1;entryX=0.5;entryY=1;entryDx=0;entryDy=0;entryPerimeter=0;" edge="1" parent="vGmuodugA4ZgQ4iNsHjh-1" source="vGmuodugA4ZgQ4iNsHjh-28" target="vGmuodugA4ZgQ4iNsHjh-66">
          <mxGeometry relative="1" as="geometry" />
        </mxCell>
        <mxCell id="vGmuodugA4ZgQ4iNsHjh-76" style="edgeStyle=orthogonalEdgeStyle;rounded=0;orthogonalLoop=1;jettySize=auto;html=1;entryX=0.5;entryY=1;entryDx=0;entryDy=0;entryPerimeter=0;" edge="1" parent="vGmuodugA4ZgQ4iNsHjh-1" source="vGmuodugA4ZgQ4iNsHjh-20" target="vGmuodugA4ZgQ4iNsHjh-75">
          <mxGeometry relative="1" as="geometry" />
        </mxCell>
        <mxCell id="vGmuodugA4ZgQ4iNsHjh-78" style="edgeStyle=orthogonalEdgeStyle;rounded=0;orthogonalLoop=1;jettySize=auto;html=1;entryX=0;entryY=0.5;entryDx=0;entryDy=0;entryPerimeter=0;" edge="1" parent="vGmuodugA4ZgQ4iNsHjh-1" source="vGmuodugA4ZgQ4iNsHjh-75" target="vGmuodugA4ZgQ4iNsHjh-77">
          <mxGeometry relative="1" as="geometry" />
        </mxCell>
        <mxCell id="vGmuodugA4ZgQ4iNsHjh-48" value="да" style="text;html=1;align=center;verticalAlign=middle;resizable=0;points=[];autosize=1;strokeColor=none;fillColor=none;" vertex="1" parent="1">
          <mxGeometry x="420" y="348" width="40" height="30" as="geometry" />
        </mxCell>
        <mxCell id="vGmuodugA4ZgQ4iNsHjh-59" value="" style="shape=mxgraph.bpmn.data2;labelPosition=center;verticalLabelPosition=bottom;align=center;verticalAlign=top;size=15;html=1;" vertex="1" parent="1">
          <mxGeometry x="930" y="585" width="150" height="70" as="geometry" />
        </mxCell>
        <mxCell id="vGmuodugA4ZgQ4iNsHjh-60" style="edgeStyle=orthogonalEdgeStyle;rounded=0;orthogonalLoop=1;jettySize=auto;html=1;exitX=0.25;exitY=0.75;exitDx=0;exitDy=0;exitPerimeter=0;entryX=0.414;entryY=-0.018;entryDx=0;entryDy=0;entryPerimeter=0;dashed=1;dashPattern=1 1;endArrow=none;startFill=0;" edge="1" parent="1" source="vGmuodugA4ZgQ4iNsHjh-23" target="vGmuodugA4ZgQ4iNsHjh-59">
          <mxGeometry relative="1" as="geometry" />
        </mxCell>
        <mxCell id="vGmuodugA4ZgQ4iNsHjh-62" value="Проверка&lt;br&gt;Достаточно ли средств на карте?" style="text;html=1;align=center;verticalAlign=middle;whiteSpace=wrap;rounded=0;" vertex="1" parent="1">
          <mxGeometry x="930" y="580" width="150" height="80" as="geometry" />
        </mxCell>
        <mxCell id="vGmuodugA4ZgQ4iNsHjh-73" value="да" style="text;html=1;align=center;verticalAlign=middle;resizable=0;points=[];autosize=1;strokeColor=none;fillColor=none;" vertex="1" parent="1">
          <mxGeometry x="1000" y="38" width="40" height="30" as="geometry" />
        </mxCell>
      </root>
    </mxGraphModel>
  </diagram>
</mxfile>
